<svg width="114" height="58" viewBox="0 0 114 58" fill="none" xmlns="http://www.w3.org/2000/svg">
<path d="M24.2725 25.491L14.9414 2.15234H18.2234L26.0811 21.7863H26.2283L33.8632 2.15234H37.1084L27.7405 25.491H24.2725Z" fill="black"/>
<path d="M43.0092 2.15234V25.491H39.8008V2.15234H43.0092Z" fill="black"/>
<path d="M55.0364 25.491L45.7031 2.15234H48.9851L56.8429 21.7863H56.99L64.6249 2.15234H67.8701L58.5022 25.491H55.0364Z" fill="black"/>
<path d="M73.7748 2.15234V25.491H70.5664V2.15234H73.7748Z" fill="black"/>
<path d="M78.2734 2.15234H86.6829C93.9868 2.15234 98.5971 6.52413 98.5971 13.8227C98.5971 21.1214 93.9868 25.4931 86.6829 25.4931H78.2734V2.15234ZM86.499 22.8596C92.1803 22.8596 95.2784 19.4895 95.2784 13.8206C95.2784 8.1516 92.1803 4.7815 86.499 4.7815H81.4819V22.8596H86.499Z" fill="black"/>
<path d="M12.4806 55.1297H2.5957V31.791H12.0761C17.8309 31.791 20.1912 34.3094 20.1912 38.0141C20.1912 40.7193 18.2722 42.5705 15.8016 43.016C18.6422 43.4984 20.8554 45.3866 20.8554 48.7219C20.8533 52.7569 17.9023 55.1297 12.4806 55.1297ZM5.6938 41.8665H12.1864C15.5419 41.8665 16.9806 40.4216 16.9806 38.1618C16.9806 35.939 15.5419 34.4202 12.1864 34.4202H5.6938V41.8665ZM5.6938 44.3479V52.4983H12.4071C15.8751 52.4983 17.6816 50.9795 17.6816 48.4612C17.6816 45.9059 15.8751 44.3501 12.4071 44.3501H5.6938V44.3479Z" fill="black"/>
<path d="M90.0688 55.1297L80.4781 44.0524L77.7846 46.7946V55.1297H74.5762V31.791H77.7846V43.3115L89.0347 31.791H92.8338L82.8385 42.0534L93.9415 55.1297H90.0688Z" fill="black"/>
<path d="M96.7817 46.6076C96.9656 50.8686 99.8798 53.0545 103.789 53.0545C107.257 53.0545 109.432 51.5726 109.432 49.0173C109.432 46.8683 108.03 45.8319 105.005 45.2387L100.395 44.35C96.9635 43.6829 94.6031 41.8317 94.6031 38.2008C94.6031 34.1267 97.8115 31.3477 102.902 31.3477C108.731 31.3477 112.086 34.4592 112.123 39.7197L109.209 39.8674C109.098 36.0149 106.775 33.8291 102.939 33.8291C99.5834 33.8291 97.7012 35.4218 97.7012 38.0161C97.7012 40.3128 99.2135 41.0538 101.907 41.5731L106.113 42.3879C110.355 43.2027 112.495 45.0562 112.495 48.7978C112.495 53.0957 108.806 55.5771 103.789 55.5771C98.0711 55.5771 93.9043 52.4287 93.9043 46.7966L96.7817 46.6076Z" fill="black"/>
<path d="M60.4014 34.3212C65.4639 34.3212 69.581 38.4561 69.581 43.5406C69.581 48.6251 65.4639 52.76 60.4014 52.76C55.3389 52.76 51.2218 48.6251 51.2218 43.5406C51.2218 38.4561 55.3389 34.3212 60.4014 34.3212ZM60.4014 31.2031C53.6167 31.2031 48.1172 36.7265 48.1172 43.5406C48.1172 50.3547 53.6167 55.8781 60.4014 55.8781C67.1861 55.8781 72.6856 50.3547 72.6856 43.5406C72.6856 36.7265 67.1861 31.2031 60.4014 31.2031Z" fill="black"/>
<path d="M34.2842 34.369C39.3186 34.369 43.4162 38.4822 43.4162 43.5406C43.4162 48.5968 39.3208 52.7122 34.2842 52.7122C29.2476 52.7122 25.1522 48.599 25.1522 43.5406C25.1543 38.4844 29.2498 34.369 34.2842 34.369ZM34.2842 31.2031C27.4996 31.2031 22 36.7265 22 43.5406C22 50.3547 27.4996 55.8781 34.2842 55.8781C41.0689 55.8781 46.5684 50.3547 46.5684 43.5406C46.5706 36.7265 41.0689 31.2031 34.2842 31.2031Z" fill="black"/>
</svg>
